<svg version="1.1" id="Layer_1" xmlns="http://www.w3.org/2000/svg" x="0" y="0" viewBox="0 0 60 60" xml:space="preserve"><style>.st0{fill:#b59ab1}</style><switch><g><g id="XMLID_959_"><path id="XMLID_948_" class="st0" d="M35.7 30c0 3.2-2.6 5.7-5.7 5.7s-5.7-2.6-5.7-5.7 2.6-5.7 5.7-5.7 5.7 2.5 5.7 5.7z"/><path id="XMLID_963_" class="st0" d="M43.4 19.8c-.3-.7-.7-1.4-1.3-2-.6-.6-1.2-1-2-1.3-.6-.2-1.5-.5-3.2-.6-1.8-.1-2.4-.1-7-.1s-5.1 0-7 .1c-1.7.1-2.6.4-3.2.6-.7.3-1.4.7-2 1.3-.6.6-1 1.2-1.3 2-.2.6-.5 1.5-.6 3.2-.1 1.8-.1 2.4-.1 7s0 5.1.1 7c.1 1.7.4 2.6.6 3.2.3.7.7 1.4 1.3 2 .6.6 1.2 1 2 1.3.6.2 1.5.5 3.2.6 1.8.1 2.4.1 7 .1s5.1 0 7-.1c1.7-.1 2.6-.4 3.2-.6 1.5-.6 2.7-1.8 3.3-3.3.2-.6.5-1.5.6-3.2.1-1.8.1-2.4.1-7s0-5.1-.1-7c-.1-1.6-.3-2.6-.6-3.2zM30 38.8c-4.9 0-8.8-4-8.8-8.8s4-8.8 8.8-8.8c4.9 0 8.8 4 8.8 8.8s-3.9 8.8-8.8 8.8zm9.2-15.9c-1.1 0-2.1-.9-2.1-2.1s.9-2.1 2.1-2.1 2.1.9 2.1 2.1c0 1.1-1 2.1-2.1 2.1z"/><path id="XMLID_960_" class="st0" d="M30 0C13.4 0 0 13.4 0 30s13.4 30 30 30 30-13.4 30-30S46.6 0 30 0zm17.1 37.1c-.1 1.8-.4 3.1-.8 4.2-.9 2.3-2.7 4.1-5 5-1.1.4-2.3.7-4.2.8-1.8.1-2.4.1-7.1.1-4.7 0-5.3 0-7.1-.1-1.8-.1-3.1-.4-4.2-.8s-2.2-1.1-3.1-2c-.9-.9-1.6-1.9-2-3.1-.4-1.1-.7-2.3-.8-4.2-.1-1.8-.1-2.4-.1-7.1s0-5.3.1-7.1c.1-1.8.4-3.1.8-4.2s1.1-2.2 2-3.1c.9-.9 1.9-1.6 3.1-2 1.1-.4 2.3-.7 4.2-.8 1.8-.1 2.4-.1 7.1-.1s5.3 0 7.1.1c1.8.1 3.1.4 4.2.8s2.2 1.1 3.1 2c.9.9 1.6 1.9 2 3.1.4 1.1.7 2.3.8 4.2.1 1.8.1 2.4.1 7.1s-.1 5.4-.2 7.2z"/></g></g></switch></svg>