<svg version="1.1" id="Layer_1" xmlns="http://www.w3.org/2000/svg" x="0" y="0" viewBox="0 0 50 50" xml:space="preserve"><style>.st0{fill:#31353c}</style><switch><g><g id="XMLID_278_"><path id="XMLID_74_" class="st0" d="M13.4.5c.6-.6 1.5-.7 2.2-.3l6.8 4.2c.5.3.8 1 .8 1.5 0 .2-.1.5-.1.7L19.7 15c-.2.6-1 1.1-1.7 1.1h-.2l-5.8-.5c-2.2 6.1-2.1 12.8 0 18.7l5.8-.6h.2c.7 0 1.4.5 1.7 1.1l3.4 8.4c.1.2.1.5.1.7 0 .5-.4 1.2-.8 1.5l-6.8 4.2c-.2.2-.7.3-1 .3-.4 0-1-.2-1.3-.5C-.1 35.9-.1 14 13.4.5z"/><g id="XMLID_290_"><path id="XMLID_463_" class="st0" d="M26.7 29.8c-.6 1-1.9 1.2-2.7.4l-.9-.8c-.6-.5-.7-1.4-.3-2.1.3-.6.5-1.5.5-2.2 0-.6-.2-1.6-.5-2.2-.4-.7-.2-1.6.3-2.1l.9-.8c.8-.8 2.2-.6 2.7.4 1.7 2.8 1.7 6.4 0 9.4z"/><path id="XMLID_395_" class="st0" d="M33.4 36.5c-.6.8-1.9.9-2.6.2l-.8-.8c-.6-.6-.7-1.6-.2-2.3 3.9-5.1 3.9-12.1 0-17.1-.5-.7-.5-1.7.2-2.3l.9-.8c.8-.7 2-.6 2.6.2 5.2 6.6 5.2 16.1-.1 22.9z"/><path id="XMLID_320_" class="st0" d="M40.1 43.1c-.7.8-1.8.8-2.6.1l-.8-.8c-.7-.6-.7-1.7-.1-2.4 7.3-8.7 7.3-21.4 0-30.1-.6-.7-.5-1.8.1-2.4l.8-.8c.7-.7 1.9-.6 2.6.1 8.8 10.6 8.8 25.8 0 36.3z"/></g></g></g></switch></svg>