<svg xmlns="http://www.w3.org/2000/svg" viewBox="-279 236 400 90"><linearGradient id="a" gradientUnits="userSpaceOnUse" x1="-167.187" y1="294.963" x2="-167.187" y2="267.038"><stop offset="0" stop-color="#383838"/><stop offset=".6" stop-color="#fff"/><stop offset="1" stop-color="#878787"/></linearGradient><path d="M-182.6 295v-28h30.8v18.4h-21.7v9.5h-9.1zm21.7-14.5V272h-12.7v8.5h12.7z" fill="url(#a)"/><linearGradient id="b" gradientUnits="userSpaceOnUse" x1="-183.095" y1="281" x2="-151.278" y2="281"><stop offset="0" stop-color="#878787"/><stop offset=".5" stop-color="#cacaca"/><stop offset="1" stop-color="#878787"/></linearGradient><path d="M-152.3 267.5v17.4H-174v9.5h-8.1v-26.9h29.8m-21.8 13.5h13.7v-9.5h-13.7v9.5m22.8-14.5h-31.8v28.9h10.1v-9.5h21.7v-19.4zm-21.8 6h11.7v7.4h-11.7v-7.4z" fill="url(#b)"/><linearGradient id="c" gradientUnits="userSpaceOnUse" x1="-128.19" y1="294.963" x2="-128.19" y2="267.038"><stop offset="0" stop-color="#383838"/><stop offset=".6" stop-color="#fff"/><stop offset="1" stop-color="#878787"/></linearGradient><path d="M-121.5 295l-15-17.1V295h-9.2v-28h31.9v15.4h-7.9l11 12.6h-10.8zm-1.2-17.6V272h-13.8v5.4h13.8z" fill="url(#c)"/><linearGradient id="d" gradientUnits="userSpaceOnUse" x1="-146.19" y1="281" x2="-109.585" y2="281"><stop offset="0" stop-color="#878787"/><stop offset=".5" stop-color="#cacaca"/><stop offset="1" stop-color="#878787"/></linearGradient><path d="M-114.3 267.5v14.3h-8.5l11 12.6h-9.5l-14.5-16.5h13.6v-6.4H-137v23h-8.2v-26.9h30.9m1-1.1h-32.9v28.9h10.2v-16.3l14 15.9.3.3h12.2l-1.5-1.7-9.5-10.9h7.3v-16.2h-.1zm-22.7 6h12.8v4.4H-136v-4.4z" fill="url(#d)"/><linearGradient id="e" gradientUnits="userSpaceOnUse" x1="-90.828" y1="294.963" x2="-90.828" y2="267.038"><stop offset="0" stop-color="#383838"/><stop offset=".6" stop-color="#fff"/><stop offset="1" stop-color="#878787"/></linearGradient><path fill="url(#e)" d="M-106.7 295v-28h31.8l-4.3 5h-18.5v6.5h20.4v5h-20.4v6.5h18.4l4.3 5z"/><linearGradient id="f" gradientUnits="userSpaceOnUse" x1="-107.246" y1="281" x2="-73.812" y2="281"><stop offset="0" stop-color="#878787"/><stop offset=".5" stop-color="#cacaca"/><stop offset="1" stop-color="#878787"/></linearGradient><path d="M-76 267.5l-3.4 4h-18.7v7.5h20.3v4h-20.3v7.5h18.6l3.5 4h-30.1v-26.9H-76m2.2-1.1h-33.4v28.9H-73.9l-1.5-1.7-3.5-4-.3-.3h-18.1V284H-77v-6h-20.3v-5.5h18.2l.3-.3 3.4-4 1.6-1.7z" fill="url(#f)"/><linearGradient id="g" gradientUnits="userSpaceOnUse" x1="-54.482" y1="294.963" x2="-54.482" y2="267.038"><stop offset="0" stop-color="#383838"/><stop offset=".6" stop-color="#fff"/><stop offset="1" stop-color="#878787"/></linearGradient><path d="M-70.2 295v-28h22.5l8.9 14-8.9 13.9h-22.5zm16.4-5l5.8-9-5.8-9h-7.4v18h7.4z" fill="url(#g)"/><linearGradient id="h" gradientUnits="userSpaceOnUse" x1="-70.688" y1="281" x2="-38.184" y2="281"><stop offset="0" stop-color="#878787"/><stop offset=".5" stop-color="#cacaca"/><stop offset="1" stop-color="#878787"/></linearGradient><path d="M-47.9 267.5l8.5 13.5-8.5 13.4h-21.8v-26.9h21.8m-13.7 23h8.2l6.2-9.5-6.2-9.5h-8.2v19m14.2-24H-70.8v28.9H-47.4l.3-.5 8.5-13.4.3-.5-.3-.5-8.5-13.5-.3-.5zm-13.2 6h6.6l5.5 8.5-5.5 8.5h-6.6v-17z" fill="url(#h)"/><linearGradient id="i" gradientUnits="userSpaceOnUse" x1="-18.546" y1="294.963" x2="-18.546" y2="267.038"><stop offset="0" stop-color="#383838"/><stop offset=".6" stop-color="#fff"/><stop offset="1" stop-color="#878787"/></linearGradient><path d="M-11.9 295v-11.5h-13.2V295h-9.2v-28h31.5v28h-9.1zm-.1-16.5V272h-13v6.5h13z" fill="url(#i)"/><linearGradient id="j" gradientUnits="userSpaceOnUse" x1="-34.82" y1="281" x2="-2.272" y2="281"><stop offset="0" stop-color="#878787"/><stop offset=".5" stop-color="#cacaca"/><stop offset="1" stop-color="#878787"/></linearGradient><path d="M-3.3 267.5v26.9h-8.1V283h-14.2v11.5h-8.2v-26.9h30.5M-25.5 279h13.9v-7.5h-13.9v7.5m23.2-12.5h-32.5v28.9h10.2V284h12.2v11.5h10.1v-29zm-22.2 6h11.9v5.5h-11.9v-5.5z" fill="url(#j)"/><linearGradient id="k" gradientUnits="userSpaceOnUse" x1="19.743" y1="294.963" x2="19.743" y2="267.038"><stop offset="0" stop-color="#383838"/><stop offset=".6" stop-color="#fff"/><stop offset="1" stop-color="#878787"/></linearGradient><path fill="url(#k)" d="M15.3 295v-23H5.5l-4.3-5h37.1l-4.3 5h-9.7v23z"/><linearGradient id="l" gradientUnits="userSpaceOnUse" x1=".083" y1="281" x2="39.403" y2="281"><stop offset="0" stop-color="#878787"/><stop offset=".5" stop-color="#cacaca"/><stop offset="1" stop-color="#878787"/></linearGradient><path d="M37.2 267.5l-3.4 4h-10v23h-8v-23H5.7l-3.4-4h34.9m2.2-1H.1l1.4 1.7 3.4 4 .3.3h9.6v23h10v-23h9.5l.3-.3 3.4-4 1.4-1.7z" fill="url(#l)"/><linearGradient id="m" gradientUnits="userSpaceOnUse" x1="58.033" y1="294.963" x2="58.033" y2="267.038"><stop offset="0" stop-color="#383838"/><stop offset=".6" stop-color="#fff"/><stop offset="1" stop-color="#878787"/></linearGradient><path d="M49.1 295l-6.8-7.7V267h31.5v28H49.1zm15.7-5v-18H51.3v13.1l4.3 4.9h9.2z" fill="url(#m)"/><linearGradient id="n" gradientUnits="userSpaceOnUse" x1="41.759" y1="281" x2="74.306" y2="281"><stop offset="0" stop-color="#878787"/><stop offset=".5" stop-color="#cacaca"/><stop offset="1" stop-color="#878787"/></linearGradient><path d="M73.3 267.5v26.9h-24l-6.5-7.4v-19.5h30.5m-17.9 23h9.9v-19H50.8v13.8l4.6 5.2m18.9-24H41.8v20.9l.3.3 6.5 7.4.3.3h25.5v-28.9h-.1zm-22.5 6h12.4v17h-8.4l-4-4.6v-12.4z" fill="url(#n)"/><linearGradient id="o" gradientUnits="userSpaceOnUse" x1="97.395" y1="294.963" x2="97.395" y2="267.038"><stop offset="0" stop-color="#383838"/><stop offset=".6" stop-color="#fff"/><stop offset="1" stop-color="#878787"/></linearGradient><path d="M104.1 295l-15-17.1V295h-9.2v-28h31.9v15.4h-7.9l11 12.6h-10.8zm-1.2-17.6V272H89.1v5.4h13.8z" fill="url(#o)"/><linearGradient id="p" gradientUnits="userSpaceOnUse" x1="79.395" y1="281" x2="116" y2="281"><stop offset="0" stop-color="#878787"/><stop offset=".5" stop-color="#cacaca"/><stop offset="1" stop-color="#878787"/></linearGradient><path d="M111.3 267.5v14.3h-8.5l11 12.6h-9.5l-14.5-16.5h13.6v-6.4H88.6v23h-8.2v-26.9h30.9m1-1.1H79.4v28.9h10.2v-16.3l14 15.9.3.3h12.2l-1.5-1.7-9.5-10.9h7.3v-16.2h-.1zm-22.7 6h12.8v4.4H89.6v-4.4z" fill="url(#p)"/><g><linearGradient id="q" gradientUnits="userSpaceOnUse" x1="-234.108" y1="321.816" x2="-234.108" y2="240.184"><stop offset="0"/><stop offset=".109" stop-color="#0c0c0c"/><stop offset=".499" stop-color="#343434"/><stop offset=".809" stop-color="#4c4c4c"/><stop offset="1" stop-color="#555"/></linearGradient><path d="M-194.2 245s-3.9 55.3-39.9 76.8c-36-21.5-39.9-76.8-39.9-76.8 16.3-5 39.9-4.8 39.9-4.8s23.6-.1 39.9 4.8z" fill="url(#q)"/><linearGradient id="r" gradientUnits="userSpaceOnUse" x1="-234.108" y1="311.915" x2="-234.108" y2="247.588"><stop offset="0" stop-color="#a4893d"/><stop offset=".25" stop-color="#c7af6b"/><stop offset=".6" stop-color="#a4893d"/><stop offset="1" stop-color="#ddc383"/></linearGradient><path d="M-260.5 272.3c-.6-1.6-3.7-10.4-4.8-20.8 0-.1.1-.2.1-.2 1.6-.4 15-3.7 31.2-3.7 7.8 0 16.4 1 20.3 1.6.2 0 .2.4 0 .4-4.2.2-13.3.6-16.2 1.3h-.1c-.7 0-14.7-.9-31.4 3.3-.1 0-.2.1-.1.2.2 1.4 1.3 10.5 3.2 16.1 0 .1 0 .2-.1.2l-1.8 1.7c-.1.1-.2 0-.3-.1zm53.4-13.6c-4.9 34.1-25.1 47.5-26.7 48.6h-.2c-10.3-6.2-17.8-20.9-18.2-21.8 0 0 0-.1-.1-.1l-1.6-1.2h-.2l-.9.2c-.1 0-.2 0-.2-.1s-.1-.1-.2-.1h-.1c-.1 0-.2.2-.1.3 8.3 17.8 20.4 26.5 21.6 27.4h.2c22.5-14.8 29.5-49.3 31-58 0-.2-.3-.3-.4-.1-1.4 3.4-3.3 4.6-3.7 4.8-.2 0-.2 0-.2.1zm1.8-6.6c.1-.1 0-.3-.2-.3-.9 0-3.4 0-5 .2-2 .3-5.6 1-7.5 2.1-1.9 1.1-4.3 3.8-4.8 3.3s.7-2.2 1.6-3.4c.5-.7 1.5-1.2 2.2-1.6.2-.1.1-.4-.1-.4l-10.5.8h-.1c-.7.3-14.2 5.6-16.4 7.5-2.2 2-2.5 4-4.1 5.8-1.6 1.7-8.6 7.7-8.7 8.1 0 .1 0 .2-.1.2 0 .2.3.3.4.1.1-.1.1-.2.2-.3.2-.3 1-.8 1.6-1.2.6-.4 3-1 3.2-.8.1.1-.1 1-.3 1.8-.1.2.2.3.3.2.5-.6 1.2-1.4 1.7-1.7.9-.5 7.1-4.9 8.1-5.7 1-.7 3.2-1.8 3.6-2l.1-.1 1-2.6c0-.1.1-.1.2-.1l5.8.6h.1l3.7-1c.2-.1.3.2.2.3l-5.3 4.8h-.1l-9.3 1.3h-.1l-7.8 5.1h-.1l-2.9 4-.7 1.8v.1l.1.7c0 .2-.2.3-.4.1l-.4-.6-.1-.1-.7-.4c-.2-.1-.3.1-.3.3l1 2.4c0 .1.1.1.2.1.9-.3 5.6-1.6 6.7-2.1.9-.4 1.7-.8 2.1-1 .1-.1.1-.3 0-.3l-.6-.3c-.1-.1-.1-.3 0-.3l2.3-1.2h.1l.1-.1c.1-.2 0-.4-.2-.3l-2.2 1.1s-3.9 1.9-4.1 1.2c-.2-.6 3.5-1.9 3.9-2h.1l3.7-2.7.1-.1.1-.3c0-.2-.2-.3-.3-.2l-3.4 2.5c-.3.1-3.4 1.6-3.5 1-.2-.6 7.9-5.5 8.8-5.4.8.1 2.4 2 2.7 2.5.2.3.2.7.2.9 0 .1.1.2.2.2l7-.3h.1l3.4.9c.1 0 .1.1.1.1l4.1 9.3v.2c-.5.8-4 6.3-4.6 7.1-.6.8-1.5 1.5-2.5 2.1-1 .6-7.6 1.6-7.6 2.1 0 .4 1.8 1.2 2.1 1.3h.1l6.1-1.3s.1 0 .1-.1c2.9-3.8 7.9-6.6 8.4-6.9 0 0 .1 0 .1-.1l2.1-4.4v-.2l-5.2-7.6c-.1-.1 0-.2.1-.3l5.5-3.4c.2-.1.1-.4-.1-.4l-14.1-.6c-.2 0-.3-.3-.1-.4l11.7-5.3c.2-.1.2-.3 0-.4l-4.7-1.8c-.2-.1-.2-.3 0-.4l10.8-4.6c.2-.1.2-.3 0-.4l-2.7-1.2c-.1-.1-.2-.2-.1-.3.7-.6 2.7-2.5 4.3-3 1.9-.6 6.5-1.7 6.7-1 .2.5-.5 2.7-1 4-.1.2.2.4.3.2 1.7-1.9 3.1-4.6 3.5-5.4zm-33.8 7.8l-1.9 1.6c-.2.1-.4 0-.3-.2l1.1-2.3.1-.1 3.7-1.6c.2-.1.4.2.2.3l-2.9 2.3zm-2.3 10.9l-1.5-.1h-.1l-1.8.8-3.7 2.3s-1.3.8-2 .7c-.2 0-.2-.3-.1-.4l6.8-4.4h.1l2.1-.3h.1l1.4.5s.1 0 .1.1l.8 1c.1.1 0 .4-.2.3l-2-.5zm4.8-5.2l1.1-1.1c.1-.1 0-.4-.2-.3l-1.4.3-2.7 1.4c-.2.1-.1.4.1.4l3-.6s.1 0 .1-.1zm6.2 18.6l2-3 .4-.1v-1.5c0-.1-.5-.2-.6-.2l-1.6.3c-.1 0-.3.2-.2.3l.3.8v.2l-.2.2c0 .1-.1-.2-.2-.2h-.8c-.2 0-.2.4-.2.6l.5 1v.3l-.3.4c-.1.1-.1.2 0 .3l.1.1c.1.1.1.3 0 .3l-1.1.6-.1.1-.3.9c-.1.2.1.3.3.2l2-1.6c-.1.1-.1.1 0 0zm-3.1 7.1l1.9-1.8c.2-.2 0-.4-.2-.3l-2 1-.1-.2h-.9c-.1 0-.1.2-.2.3l-.5 1.1c-.1.2.1.4.2.3l1.8-.4zm-2.5-1.1l-4-2.4c-.1-.1-.3 0-.3.2l.2 2.3c0 .1-.1.3-.3.2l-3.6-1.2c-.2-.1-.3.1-.2.3l.6 1.1.1.1 2.5 1.2h.2l1.1-.7h.2l2.3.7c.1 0 .2 0 .2-.1l1-1.4c.1-.1.1-.3 0-.3zm-2.1-2.6l.2-2.4v-.1l1.5-2.6v-.1l1.6-1.3c.2-.1 0-.4-.2-.3l-2.3 1s-.1 0-.1.1l-1.7 2.9v.1l.2 2.8v.1l.2.3c.1.1.3.1.3 0l.3-.5zm-11.2-3.5c-.5-1-.5-2.2-.5-2.8 0-.1-.1-.2-.2-.2l-2.7.6c-.1 0-.2.2-.1.3 1 1.3 2.6 2 3.3 2.3.1.2.3 0 .2-.2zm4.2-.7c-.5-1.1-.5-2.6-.5-3.2 0-.1-.1-.2-.2-.2l-2.7.7c-.1 0-.2.2-.1.3 1 1.3 2.4 2.2 3.3 2.7.1.1.3-.1.2-.3z" fill="url(#r)"/></g></svg>