<svg version="1.1" id="Layer_1" xmlns="http://www.w3.org/2000/svg" x="0" y="0" viewBox="0 0 600 85" xml:space="preserve"><style>.st0{fill:#31363c}.st1{fill:#fff}</style><path class="st0" d="M68 27.7c0 3.1-.4 6.1-1.5 9.1-1.2 3.4-3.1 6.3-5.7 8.7-2.8 2.8-6.5 4.2-11 5.4L57.4 79H41.8l-7-25.9H20.3l-4.8 25.8H1L14 6h32.6c3.5-.1 6.8.4 10.1 1.7 2.7 1.1 4.9 2.8 6.7 5 1.6 2.1 2.8 4.5 3.6 6.9.7 2.7 1 5.4 1 8.1zM41.7 39c4.2 0 7.3-1.2 9.1-3.2 1.7-2.1 2.6-4.7 2.6-7.4.1-2.2-.7-4.4-2-6.1-1.3-1.7-3.6-2.1-6.4-2.1H26.1L22.7 39h19zM67.8 78.9L108 6h14.1l14.2 72.9h-14.6l-2.8-14.1H91.5l-8.3 14.1H67.8zm30.3-28.2h18.6L113 30.4c-.1-.6-.2-1.1-.3-1.7-.1-.9-.3-1.7-.4-2.3-.1-.6-.2-1-.2-1.6-.8 1.8-1.7 3.4-2.8 5.4L98.1 50.7zM148.6 78.9l13-72.9h31.1c7 0 12.3 1.9 15.8 6.1 3.5 4.1 5.3 9.4 5.1 14.8.1 6.9-2.6 13.5-7.4 18.4-4.9 5-11.6 7.7-20.1 7.7H168l-4.8 25.8h-14.6zM187.5 39c3.7 0 6.6-1.1 8.5-3.4 1.8-1.8 2.8-4.4 2.8-6.9 0-6-2.6-8.6-7.8-8.6h-17.2l-3.5 18.8 17.2.1zM219 78.9L232.1 6h14.5l-13.1 72.9H219zM266.1 6h23c9.8 0 17.3 3 22.5 9.4s7.7 14.3 7.7 24.1c0 4.8-.8 9.6-2.2 14.2-1.6 4.7-3.8 9.1-6.8 13-3 4-7.2 6.7-12.3 9.2-5.1 2.5-11.2 3.1-17.9 3.1h-26.8l12.8-73zm13.6 61.2c6.9.2 13.4-2.9 17.7-8.3 4.1-5.3 6.4-11.8 6.3-18.6 0-6.4-1.3-11.1-4.1-14.9-2.8-3.8-6.9-5.4-12.3-5.4h-9.4l-8.3 46.9h10.2v.3z"/><path class="st1" d="M344.9 80.5L332.7 5.2h15l6.6 44.5c.4 3.5.8 6.9.9 10.4 1.1-3.4 2.5-6.7 4-9.9l22.4-44.9h15.5l-37.2 75.2h-15zM384 80.5l40.2-75.2h14.1l14.3 75.2h-14.8L435.1 64h-27.5l-8.3 16.4H384zm30.3-28.3h18.6L429.2 31c-.1-.3-.2-1.1-.3-2.1s-.3-1.9-.4-2.6c-.1-.6-.2-1.1-.2-1.7-.8 1.8-1.7 4.1-2.8 6.3l-11.2 21.3zM464.8 80.5l13-75.2h13.4l20 42.8c.9 1.8 1.6 3.7 2 5.7.1-1.9.3-3.8.7-5.7l7.6-42.8h14.2l-13.1 75.2h-12.7l-20.7-43.7c-.8-1.9-1.5-3.8-2-5.8 0 2-.2 4-.7 5.9l-7.6 43.6h-14.1zM585.9 25.6c-.4-2.3-1.7-4.5-3.6-5.9-2.1-1.6-4.7-2.3-7.3-2.2-2.7-.1-5.4.6-7.6 2.1-1.8 1.2-2.8 3.1-2.8 5.3 0 1.9 1.1 3.6 3.2 5 2.5 1.6 5 3 7.8 4 3 1.2 6.1 2.8 9.3 4.4 3.2 1.8 5.9 4.2 7.9 7.3 2.2 3.5 3.4 7.5 3.2 11.6.2 6.6-2.7 13-7.8 17.1-5.3 4.4-12.2 6.5-20.8 6.5-6.6 0-12-1.9-16.2-5.6-4.4-3.9-7.5-9.1-8.8-14.8l13.3-4.9c.9 3.2 2.6 6.1 5 8.5 2.1 1.9 5 2.9 8.8 2.9 2.9.1 5.8-.7 8.3-2.2 2-1.3 3.2-3.7 3.1-6.1 0-2.5-1.2-4.8-3.1-6.3-2.3-1.9-4.9-3.4-7.7-4.5-3-1.2-6-2.7-9.1-4.2-3.1-1.7-5.8-4-7.7-7-2.2-3.4-3.4-7.3-3.2-11.2-.1-5.9 2.5-11.6 7-15.3 4.7-4 11-6 18.9-6 6.9 0 12.3 1.7 16.1 5 3.7 3.1 6 7.4 6.8 12.2l-13 4.3z"/></svg>