<svg version="1.1" id="Layer_1" xmlns="http://www.w3.org/2000/svg" x="0" y="0" viewBox="0 0 266.7 50" xml:space="preserve"><style>.st0{fill:#00b67a}.st2{fill:#fff}</style><switch><g><g id="Trustpilot_ratings_4halfstar-RGB"><g id="XMLID_496_"><path id="Rectangle-path" class="st0" d="M0 0h50v50H0z"/><path id="XMLID_474_" class="st0" d="M54.2 0h50v50h-50z"/><path id="XMLID_440_" class="st0" d="M108.3 0h50v50h-50z"/><path id="XMLID_438_" class="st0" d="M162.5 0h50v50h-50z"/><g id="Half" transform="translate(416)"><path id="XMLID_435_" fill="#dcdce6" d="M-174.3 0h25v50h-25z"/><path id="XMLID_433_" class="st0" d="M-199.3 0h25v50h-25z"/></g><path id="Shape" class="st2" d="M25 33.7l7.6-1.9 3.2 9.8L25 33.7zM42.5 21H29.1L25 8.4 20.9 21H7.5l10.8 7.8-4.1 12.6L25 33.6l6.7-4.8L42.5 21z"/><path id="XMLID_524_" class="st2" d="M79.2 33.7l7.6-1.9 3.2 9.8-10.8-7.9zM96.7 21H83.3L79.2 8.4 75.1 21H61.7l10.8 7.8-4.1 12.6 10.8-7.8 6.7-4.8L96.7 21z"/><path id="XMLID_521_" class="st2" d="M133.3 33.7l7.6-1.9 3.2 9.8-10.8-7.9zM150.8 21h-13.4l-4.1-12.6-4.1 12.6h-13.4l10.8 7.8-4.1 12.6 10.8-7.8 6.7-4.8 10.8-7.8z"/><path id="XMLID_504_" class="st2" d="M187.5 33.7l7.6-1.9 3.2 9.8-10.8-7.9zM205 21h-13.4l-4.1-12.6-4.1 12.6H170l10.8 7.8-4.1 12.6 10.8-7.8 6.7-4.8L205 21z"/><path id="XMLID_497_" class="st2" d="M241.7 33.7l7.6-1.9 3.2 9.8-10.8-7.9zM259.2 21h-13.4l-4.1-12.6-4.1 12.6h-13.4l10.8 7.8-4.1 12.6 10.8-7.8 6.7-4.8 10.8-7.8z"/></g></g></g></switch></svg>