<svg xmlns="http://www.w3.org/2000/svg" viewBox="0 0 60 60"><switch><g><path d="M30 0C13.4 0 0 13.4 0 30s13.4 30 30 30 30-13.4 30-30S46.6 0 30 0zm13.7 23.4v.9c0 9.1-6.9 19.6-19.6 19.6-3.9 0-7.5-1.1-10.6-3.1.5.1 1.1.1 1.6.1 3.2 0 6.2-1.1 8.6-2.9-3-.1-5.6-2-6.4-4.8.4.1.9.1 1.3.1.6 0 1.2-.1 1.8-.2-3.2-.6-5.5-3.4-5.5-6.7v-.1c.9.5 2 .8 3.1.9-1.8-1.2-3.1-3.3-3.1-5.7 0-1.3.3-2.4.9-3.5 3.4 4.2 8.5 6.9 14.2 7.2-.1-.5-.2-1-.2-1.6 0-3.8 3.1-6.9 6.9-6.9 2 0 3.8.8 5 2.2 1.6-.3 3-.9 4.4-1.7-.5 1.6-1.6 3-3 3.8 1.4-.2 2.7-.5 4-1.1-.9 1.3-2.1 2.5-3.4 3.5z" fill="#b59ab1"/></g></switch></svg>