<?xml version="1.0" encoding="utf-8"?>
<!-- Generator: Adobe Illustrator 19.2.1, SVG Export Plug-In . SVG Version: 6.00 Build 0)  -->
<svg version="1.1" id="Capa_1" xmlns="http://www.w3.org/2000/svg" xmlns:xlink="http://www.w3.org/1999/xlink" x="0px" y="0px"
	 viewBox="0 0 512 512" style="enable-background:new 0 0 512 512;" xml:space="preserve">
<style type="text/css">
	.st0{fill:#31363C;}
	.st1{fill:#A1E44D;}
</style>
<g>
	<g>
		<g>
			<path class="st0" d="M256,227.3c-15.8,0-28.7,12.9-28.7,28.7s12.9,28.7,28.7,28.7s28.7-12.9,28.7-28.7
				C284.7,240.2,271.8,227.3,256,227.3z"/>
		</g>
	</g>
	<g>
		<g>
			<g>
				<g>
					<path class="st1" d="M275,140.4v51.7c14.7,4.4,27.3,13.7,35.9,26.1l49.2-16C343.3,170,312,146.5,275,140.4z"/>
				</g>
			</g>
		</g>
		<g>
			<g>
				<g>
					<path class="st1" d="M371.8,238.3l-49.2,16c0,0.6,0,1.1,0,1.7c0,15.2-5.1,29.3-13.8,40.5l30.4,41.8
						c20.9-21.2,33.9-50.2,33.9-82.3C373.1,250,372.7,244.1,371.8,238.3z"/>
				</g>
			</g>
		</g>
		<g>
			<g>
				<g>
					<path class="st1" d="M152,202.2l49.2,16c8.5-12.4,21.1-21.7,35.9-26.1v-51.7C200,146.5,168.7,170,152,202.2z"/>
				</g>
			</g>
		</g>
		<g>
			<g>
				<g>
					<path class="st1" d="M278.2,318.8c-6.9,2.5-14.4,3.8-22.2,3.8c-7.8,0-15.2-1.4-22.2-3.8l-30.4,41.8c15.8,8,33.7,12.5,52.6,12.5
						s36.7-4.5,52.6-12.5L278.2,318.8z"/>
				</g>
			</g>
		</g>
		<g>
			<g>
				<g>
					<path class="st1" d="M189.4,256c0-0.6,0-1.1,0-1.7l-49.2-16c-0.9,5.8-1.3,11.7-1.3,17.7c0,32,12.9,61.1,33.9,82.3l30.4-41.8
						C194.5,285.3,189.4,271.2,189.4,256z"/>
				</g>
			</g>
		</g>
	</g>
	<path class="st0" d="M256,6c138.1,0,250,111.9,250,250S394.1,506,256,506S6,394.1,6,256S117.9,6,256,6z M100.9,256
		c0,85.7,69.4,155.1,155.1,155.1S411.1,341.7,411.1,256S341.7,100.9,256,100.9S100.9,170.3,100.9,256z"/>
</g>
</svg>
